# xmcd
#
# Track frame offsets:
#	150
#	17512
#	32790
#	53055
#	71305
#	87165
#	101452
#	117307
#	137755
#	155097
#	170352
#	190615
#	208837
#	224645
#	238892
#	254695
#
# Disc length: 3670 seconds
#
# Revision: 1
# Processed by: cddbd v1.5.1PL2 Copyright (c) Steve Scherf et al.
# Submitted via: audiograbber 1.83.01
#
DISCID=e50e5410
DTITLE=Various Artist - Sc2040
DYEAR=1900
DGENRE=Country
TTITLE0=Someone Else's Dream
TTITLE1=Let's Go To Vegas
TTITLE2=Pieces Of My Heart
TTITLE3=But I Will
TTITLE4=Take Me As I Am
TTITLE5=Just About Now
TTITLE6=It Matters To Me
TTITLE7=Man's Home Is His Castle (Vocals)
TTITLE8=Someone Else's Dream (Vocals)
TTITLE9=Let's Go To Vegas (Vocals)
TTITLE10=Pieces Of My Heart (Vocals)
TTITLE11=But I Will (Vocals)
TTITLE12=Take Me As I Am (Vocals)
TTITLE13=Just About Now (Vocals)
TTITLE14=It Matters To Me (Vocals)
TTITLE15=Man's Home Is His Castle (Vocals)
EXTD=
EXTT0=
EXTT1=
EXTT2=
EXTT3=
EXTT4=
EXTT5=
EXTT6=
EXTT7=
EXTT8=
EXTT9=
EXTT10=
EXTT11=
EXTT12=
EXTT13=
EXTT14=
EXTT15=
PLAYORDER=
